<?xml version="1.0" standalone="no"?><!DOCTYPE svg PUBLIC "-//W3C//DTD SVG 1.1//EN" "http://www.w3.org/Graphics/SVG/1.1/DTD/svg11.dtd"><svg t="1628757322367" class="icon" viewBox="0 0 1028 1024" version="1.1" xmlns="http://www.w3.org/2000/svg" p-id="9093" xmlns:xlink="http://www.w3.org/1999/xlink" width="200.78125" height="200"><defs><style type="text/css"></style></defs><path d="M512.29546667 983.90613333c-126.816 0-246.03626667-49.14986667-335.712-138.37866666S37.46133333 637.5104 37.46133333 511.17013333s49.41546667-245.06026667 139.0912-334.32213333 208.87466667-138.37866667 335.712-138.37866667 246.03626667 49.14986667 335.70133334 138.37866667S987.09013333 384.864 987.09013333 511.12853333 937.6832 756.224 847.968 845.4848s-208.85333333 138.42133333-335.67146667 138.42133333z m0-877.63626666c-108.77013333 0-210.99626667 42.12693333-287.856 118.6368s-119.14666667 178.13013333-119.14666667 286.26453333 42.29653333 209.808 119.11466667 286.224S403.4624 916.032 512.26453333 916.032s210.99626667-42.11626667 287.856-118.6368 119.14666667-178.1312 119.11466667-286.2656c-0.032-108.13333333-42.2976-209.776-119.11466667-286.18986667S621.03466667 106.26986667 512.29546667 106.26986667z m237.424 370.98666666H546.2112V273.74933333c-0.81066667-18.73173333-16.65386667-33.25866667-35.38453333-32.44693333-17.59466667 0.7616-31.68426667 14.85226667-32.44693334 32.44693333v203.50613334H274.8832c-18.73066667 0.81173333-33.2576 16.65493333-32.44693333 35.3856 0.76266667 17.5936 14.85226667 31.6832 32.448 32.44586666H478.37866667v203.5072c0.81173333 18.73066667 16.65493333 33.2576 35.3856 32.44693334 17.5936-0.76266667 31.6832-14.85333333 32.44586666-32.448V545.088h203.5072c18.73066667 0.8128 34.57386667-13.71413333 35.38453334-32.44586667 0.8128-18.73173333-13.7152-34.57493333-32.44693334-35.3856a33.7952 33.7952 0 0 0-2.93653333 0z" fill="#8a8a8a" p-id="9094"></path></svg>