<?xml version="1.0" standalone="no"?><!DOCTYPE svg PUBLIC "-//W3C//DTD SVG 1.1//EN" "http://www.w3.org/Graphics/SVG/1.1/DTD/svg11.dtd"><svg t="1628753493739" class="icon" viewBox="0 0 1024 1024" version="1.1" xmlns="http://www.w3.org/2000/svg" p-id="7101" xmlns:xlink="http://www.w3.org/1999/xlink" width="200" height="200"><defs><style type="text/css"></style></defs><path d="M255.87712 0.77824c-118.3744 0-214.6304 115.3024-214.6304 257.024 0 106.496 55.82848 203.03872 139.0592 240.55808l-26.95168 418.2016c0.12288 54.14912 44.72832 98.18112 99.49184 98.18112 54.76352 0 99.36896-45.38368 99.40992-101.7856l-26.54208-412.30336c86.6304-35.6352 144.75264-133.07904 144.75264-242.85184 0-141.7216-96.256-257.024-214.6304-257.024z m-0.32768 457.07264l0.16384 19.33312 27.52512 438.272a30.43328 30.43328 0 0 1-30.39232 30.22848c-15.7696 0-30.3104-12.98432-30.47424-27.27936l27.32032-423.40352 0.90112-37.60128a8.47872 8.47872 0 0 0-5.5296-8.192l-28.75392-10.6496c-62.42304-23.06048-106.00448-97.40288-106.00448-180.75648 0-103.6288 65.29024-188.0064 145.57184-188.0064 80.24064 0 145.53088 84.3776 145.53088 188.0064 0 85.89312-45.34272 160.72704-110.22336 182.02624l-29.73696 9.78944a8.3968 8.3968 0 0 0-5.89824 8.192z m726.95808-154.58304a206.35648 206.35648 0 0 1-133.28384 192.3072l27.15648 417.3824c0 56.40192-44.56448 101.7856-99.36896 101.7856-54.72256 0-99.36896-44.032-99.5328-98.22208l27.19744-420.98688a206.4384 206.4384 0 0 1-133.16096-192.3072L571.392 81.92a34.816 34.816 0 0 1 69.632 0v221.30688c0 59.67872 39.44448 113.4592 96.58368 130.62144l31.82592 9.58464a8.6016 8.6016 0 0 1 6.06208 8.6016l-1.35168 33.13664a348.9792 348.9792 0 0 0-0.24576 8.92928l-27.36128 424.30464c0.12288 14.29504 14.70464 27.27936 30.47424 27.27936 16.71168 0 30.3104-13.55776 30.39232-30.22848l-27.19744-417.95584-0.16384-8.51968-1.39264-37.0688a8.3968 8.3968 0 0 1 6.144-8.51968l31.62112-9.54368c57.1392-17.2032 96.17408-70.8608 96.17408-130.58048V81.92a34.816 34.816 0 0 1 69.59104-1.67936c0.2048 0.32768 0.32768 223.0272 0.32768 223.0272zM788.48 82.00192a34.816 34.816 0 1 1 69.632 0v205.86496a34.816 34.816 0 1 1-69.632 0V82.00192z m-107.7248 0a34.816 34.816 0 1 1 69.632 0v205.86496a34.816 34.816 0 1 1-69.632 0V82.00192z" fill="#888888" p-id="7102"></path></svg>