<?xml version="1.0" standalone="no"?><!DOCTYPE svg PUBLIC "-//W3C//DTD SVG 1.1//EN" "http://www.w3.org/Graphics/SVG/1.1/DTD/svg11.dtd"><svg t="1628669803078" class="icon" viewBox="0 0 1024 1024" version="1.1" xmlns="http://www.w3.org/2000/svg" p-id="1086" xmlns:xlink="http://www.w3.org/1999/xlink" width="200" height="200"><defs><style type="text/css"></style></defs><path d="M77.05372445 585.77009778V803.39626667c0 39.95192889 72.54243555 72.54129778 72.54243555 72.54129778H947.56408889s73.60512-11.83061333 73.60512 21.11260444c0 32.8704-34.99804445 50.51050667-34.99804444 50.51050666l-877.59075556-1.2026311c-105.13066667 0-104.13852445-116.32298667-104.13852444-116.32298667V120.05262222c0-35.28021333 51.57432889-41.16252445 51.57432888-41.16252444 32.8704 0 21.03978667 71.62311111 21.03978667 71.62311111v362.70990222l-0.00113778 72.54698667z" p-id="1087"></path><path d="M947.23640889 281.80138667l-246.07744-127.08977778-302.12551111 421.75829333c-7.65952 12.67029333-22.91712 16.19512889-34.52814223 8.04295111L196.11761778 464.14392889l-44.13326223-35.80700444-2.79665777-14.81955556c0-10.13646222 5.04604445-19.39114667 13.06965333-24.18346667 8.02474667-4.79232 17.75160889-4.40661333 25.53173334 1.10136889l183.03886222 132.98346667 301.33475555-420.48967111c7.29429333-12.28458667 21.94432-15.92092445 33.37329778-8.86897778l279.14581333 147.85649778c7.7824 4.90382222 12.58382222 14.04814222 12.58382222 23.96387555 0 0 0 15.09489778-15.62282666 21.98072889s-34.4064-6.05980445-34.4064-6.05980444zM147.91111111 617.45493333V806.68444445h851.05777778V492.18446222L709.06083555 410.15751111l-335.98577777 286.01912889L147.91111111 617.45493333z" p-id="1088"></path></svg>