<?xml version="1.0" standalone="no"?><!DOCTYPE svg PUBLIC "-//W3C//DTD SVG 1.1//EN" "http://www.w3.org/Graphics/SVG/1.1/DTD/svg11.dtd"><svg t="1628761150293" class="icon" viewBox="0 0 1536 1024" version="1.1" xmlns="http://www.w3.org/2000/svg" p-id="21176" xmlns:xlink="http://www.w3.org/1999/xlink" width="300" height="200"><defs><style type="text/css"></style></defs><path d="M980.26528113 368.86219487l-26.08878624-26.2376142a9.60237597 9.60237597 0 0 0-6.80887629-2.82252173c-2.58216421 0-5.025918 1.01277356-6.82227081 2.82252173L849.0920936 433.01073912 757.62618812 342.62458068a9.59939978 9.59939978 0 0 0-6.80962033-2.82252174 9.65967434 9.65967434 0 0 0-6.82375891 2.82252173l-26.0865541 26.2376142c-3.77055478 3.76906668-3.77055478 9.88961352-1e-8 13.67356283l91.81713868 91.30293897-91.57454902 91.31112351c-1.82462998 1.8104914-2.824009 4.26838376-2.82400983 6.83640939 0 2.59481469 0.99937903 5.025918 2.82400983 6.83641022l26.11631937 26.21082512c1.87746405 1.89160264 4.33535642 2.83665949 6.80738736 2.83665949s4.94480677-0.94505686 6.81110925-2.83665949l91.20843319-91.49343859 91.19652594 91.49343859c1.86406953 1.89160264 4.33684534 2.83665949 6.82227082 2.83665949 2.47203176 0 4.9180177-0.94505686 6.79622662-2.83665949l26.11631937-26.21082512a9.57261072 9.57261072 0 0 0 2.83665948-6.83641022c0-2.56728158-0.99937903-5.025918-2.83665948-6.83640939L888.461537 473.83795179l91.80374414-91.30293814c3.77129883-3.78320527 3.77129883-9.9037521 0-13.67281878zM1236.42562644 207.27602541c-14.44225945-14.44225945-32.83143393-21.99453058-53.62492429-21.99453058H561.3861869c-39.42376556 0-70.90458728 15.253371-93.58744647 46.13888012L288.93290797 470.69172999l179.02805493 237.696012 0.29542291 0.37727902 0.29839993 0.35197806c11.19929892 14.37603085 23.39872175 25.480824 37.2895741 33.12908981 16.42836787 9.05245698 35.11296607 14.02405279 55.541083 14.0240528h621.63180396c42.46283194 0 74.59179785-36.10043867 74.59179868-79.4688879V261.50816707c0.00074405-20.77935096-6.74190362-39.7883941-21.18341904-54.23214166z m-30.70989212 469.52448348c0 14.34775369-8.37677802 27.58748318-22.71188205 27.58748401H561.3861869c-24.60348386 0-39.46469321-10.80713809-51.89405521-26.74883853L353.79657072 470.7981422l155.69556097-208.35831198c15.4014549-21.08891327 34.33013086-25.23823517 51.89405521-25.23823518h620.81994836c14.32245273 0 23.50959907 9.99900192 23.50959906 24.33336109v415.26555276z" fill="#333333" p-id="21177"></path></svg>