<?xml version="1.0" standalone="no"?><!DOCTYPE svg PUBLIC "-//W3C//DTD SVG 1.1//EN" "http://www.w3.org/Graphics/SVG/1.1/DTD/svg11.dtd"><svg t="1628670482036" class="icon" viewBox="0 0 1024 1024" version="1.1" xmlns="http://www.w3.org/2000/svg" p-id="800" xmlns:xlink="http://www.w3.org/1999/xlink" width="200" height="200"><defs><style type="text/css"></style></defs><path d="M585.2 671.9c0 19.3 15.6 34.9 34.9 34.9h194.7c13 0 25-7.3 31-18.8 6-11.6 5.1-25.5-2.4-36.2l-48.9-69.5c-11.1-15.8-32.9-19.5-48.7-8.4-15.8 11.1-19.5 32.9-8.4 48.7l10.2 14.4H620.1c-19.2 0-34.9 15.7-34.9 34.9zM849.8 774.7c0-19.3-15.6-34.9-34.9-34.9H620.1c-13 0-25 7.3-31 18.8-6 11.6-5 25.5 2.5 36.2l48.9 69.4c6.8 9.6 17.6 14.8 28.6 14.8 7 0 14-2.1 20.1-6.4 15.8-11.1 19.5-32.9 8.4-48.7l-10.2-14.4h127.4c19.3 0.1 35-15.6 35-34.8z" fill="#2c2c2c" p-id="801"></path><path d="M717.1 433.6c-162.8 0-295.2 132.4-295.2 295.2S554.3 1024 717.1 1024c48.6 0 96.7-12.1 139.3-34.9 17-9.1 23.4-30.3 14.3-47.3-9.1-17-30.3-23.3-47.3-14.3-32.4 17.4-69.2 26.6-106.3 26.6-124.3 0-225.4-101.1-225.4-225.4s101.1-225.4 225.4-225.4 225.4 101.1 225.4 225.4c0 41.9-11.6 82.8-33.5 118.3-10.1 16.4-5 37.9 11.4 48 16.3 10.1 37.9 5.1 48-11.4 28.7-46.5 43.9-100.1 43.9-155 0-162.6-132.4-295-295.2-295zM464.2 376.1c19.3 0 34.9-15.6 34.9-34.9 0-19.3-15.6-34.9-34.9-34.9h-82.9l70.5-71.3c13.6-13.7 13.4-35.8-0.3-49.4-13.7-13.6-35.8-13.4-49.4 0.3l-69.6 70.4-69.6-70.4c-13.5-13.7-35.6-13.8-49.4-0.3-13.7 13.5-13.8 35.6-0.3 49.4l70.4 71.3h-83c-19.3 0-34.9 15.6-34.9 34.9 0 19.3 15.6 34.9 34.9 34.9h96.8v36.6h-96.8c-19.3 0-34.9 15.6-34.9 34.9 0 19.3 15.6 34.9 34.9 34.9h96.8v79.9c0 19.3 15.6 34.9 34.9 34.9s34.9-15.6 34.9-34.9v-79.9h96.9c19.3 0 34.9-15.6 34.9-34.9 0-19.3-15.6-34.9-34.9-34.9h-96.9v-36.6h97zM573.4 236.6c-19.3 0-34.9 15.6-34.9 34.9s15.6 34.9 34.9 34.9h122.3c19.3 0 34.9-15.6 34.9-34.9s-15.6-34.9-34.9-34.9H573.4zM334.7 669.8H212.4c-19.3 0-34.9 15.6-34.9 34.9 0 19.3 15.6 34.9 34.9 34.9h122.3c19.3 0 34.9-15.6 34.9-34.9 0-19.3-15.6-34.9-34.9-34.9z" fill="#2c2c2c" p-id="802"></path><path d="M404.1 880.4h-287c-19.6 0-35.5-15.9-35.5-35.5V105.3c0-19.6 15.9-35.5 35.5-35.5h672.2c19.6 0 35.5 15.9 35.5 35.5v289.5c0 19.3 15.6 34.9 34.9 34.9 19.3 0 34.9-15.6 34.9-34.9V105.3C894.6 47.3 847.3 0 789.2 0H117.1C59 0 11.7 47.3 11.7 105.3v739.5c0 58.1 47.3 105.3 105.3 105.3h287c19.3 0 34.9-15.6 34.9-34.9 0.1-19.2-15.6-34.8-34.8-34.8z" fill="#2c2c2c" p-id="803"></path></svg>