<?xml version="1.0" standalone="no"?><!DOCTYPE svg PUBLIC "-//W3C//DTD SVG 1.1//EN" "http://www.w3.org/Graphics/SVG/1.1/DTD/svg11.dtd"><svg t="1628753489499" class="icon" viewBox="0 0 1024 1024" version="1.1" xmlns="http://www.w3.org/2000/svg" p-id="6958" xmlns:xlink="http://www.w3.org/1999/xlink" width="200" height="200"><defs><style type="text/css"></style></defs><path d="M321.563 290.154c0-21.287 0.026-41.742-0.009-62.192-0.036-21.997 3.483-43.378 10.597-64.211C359.257 84.389 437.79 31.093 521.389 35.413c91.926 4.753 166.116 71.159 180.575 162.048 1.72 10.818 1.891 21.939 2.067 32.934 0.317 19.568 0.088 39.145 0.088 59.753h8.195c39.67 0 79.34-0.124 119.01 0.031 46.062 0.181 85.52 31.792 94.024 76.616 4.135 21.804 5.745 44.087 8.499 66.155 5.947 47.635 11.888 95.276 17.841 142.911 5.951 47.635 11.916 95.267 17.875 142.903 5.992 47.848 12.052 95.69 17.945 143.55 2.257 18.311 5.814 36.563 1.349 55.13-10.272 42.712-46.825 72.803-90.757 74.358-1.543 0.052-3.085 0.083-4.629 0.083-253.668 0.005-507.342 0.045-761.01-0.04-42.429-0.014-77.929-24.55-92.071-62.897-6.181-16.76-6.471-33.851-4.166-51.422 6.815-51.96 13.101-103.99 19.625-155.986C62.7 666.922 69.62 612.308 76.453 557.685c6.392-51.128 12.691-102.267 19.061-153.394 1.551-12.453 2.491-25.034 4.959-37.308 9.064-45.058 47.777-76.602 93.856-76.792 39.67-0.164 79.34-0.036 119.01-0.036 2.416-0.005 4.831-0.005 8.221-0.005z m190.97 637.85c125.613 0 251.227 0.005 376.84-0.017 3.302 0 6.625-0.014 9.896-0.392 17.545-2.041 29.836-17.134 27.786-34.729-3.033-26.026-6.52-51.996-9.777-77.995-5.937-47.411-11.849-94.825-17.77-142.237-5.947-47.631-11.88-95.267-17.841-142.898-5.906-47.195-12.065-94.363-17.677-141.593-2.838-23.892-13.471-34.089-37.37-34.094-57.289-0.014-114.58-0.045-171.869 0.005-100.486 0.088-200.973 0.295-301.463 0.335-52.003 0.017-104.009-0.415-156.012-0.106-6.934 0.04-14.534 1.997-20.622 5.294-10.818 5.859-13.621 16.773-15.01 28.504-6.106 51.608-12.612 103.162-19.056 154.73-7.26 58.119-14.648 116.219-21.913 174.338-7.296 58.338-14.467 116.687-21.789 175.021-1.473 11.753 2.579 21.142 11.368 28.68 7.137 6.123 15.742 7.199 24.775 7.194 125.843-0.057 251.673-0.04 377.506-0.04z m127.836-638.109c0-20.983 0.036-41.425-0.005-61.865-0.154-75.046-59.273-131.759-134.267-128.831-57.681 2.252-109.876 46.556-117.917 103.679-3.958 28.133-2.015 57.1-2.702 85.693-0.009 0.353 0.467 0.714 0.899 1.327h253.99z" p-id="6959"></path><path d="M417.103 481.388c0.102 35.46-28.199 63.841-63.652 63.832-35.129-0.009-63.554-28.217-63.678-63.193-0.124-35.417 28.009-63.995 63.374-64.366 35.037-0.366 63.854 28.345 63.955 63.725zM736.053 481.469c0.097 35.068-28.102 63.535-63.148 63.748-35.42 0.211-64.206-28.094-64.339-63.272-0.133-35.253 28.275-63.995 63.535-64.285 35.014-0.286 63.854 28.49 63.951 63.81z" p-id="6960"></path></svg>