<?xml version="1.0" standalone="no"?><!DOCTYPE svg PUBLIC "-//W3C//DTD SVG 1.1//EN" "http://www.w3.org/Graphics/SVG/1.1/DTD/svg11.dtd"><svg t="1628753503525" class="icon" viewBox="0 0 1024 1024" version="1.1" xmlns="http://www.w3.org/2000/svg" p-id="7243" xmlns:xlink="http://www.w3.org/1999/xlink" width="200" height="200"><defs><style type="text/css"></style></defs><path d="M992.81408 532.57728c0-43.86816-35.4816-79.52384-79.24736-79.9488V231.65952c0-62.36672-50.74432-113.12128-113.1264-113.12128H221.184c-62.38208 0-113.1264 50.75456-113.1264 113.12128v221.18912c-42.63936 1.71008-76.86656 36.67968-76.86656 79.72864 0 43.03872 34.2272 77.99296 76.86656 79.70304v198.64064a24.3968 24.3968 0 0 0 24.39168 24.40192h19.3792v30.41792c0 30.60736 15.64672 44.61056 28.76928 50.92352 14.28992 6.87104 30.8736 7.42912 48.0256 7.42912h28.07808c22.97344 0 76.79488 0 76.79488-58.35264v-30.41792H688.128v30.41792c0 30.60736 15.64672 44.61056 28.7744 50.92352 14.27968 6.87104 30.86848 7.42912 48.0256 7.42912h28.06784c22.98368 0 76.80512 0 76.80512-58.35264v-30.41792h19.36896a24.3968 24.3968 0 0 0 24.39168-24.40192v-198.37952c43.77088-0.45056 79.25248-36.11136 79.25248-79.96416z m-912.83968 0c0-16.15872 12.34944-29.32736 28.07808-30.94016v61.87008c-15.72864-1.63328-28.07808-14.78144-28.07808-30.92992z m204.74368 333.16352c0 4.42368-0.69632 6.53824-0.67584 6.68672-2.5088 1.93024-11.71968 2.89792-27.3408 2.89792h-28.07808c-15.62112 0-24.82176-0.96768-27.0592-2.56512-0.26112-0.48128-0.95744-2.60096-0.95744-7.01952v-30.41792h84.11136v30.41792z m536.30976 0c0 4.42368-0.70656 6.53824-0.68608 6.68672-2.5088 1.93024-11.70944 2.89792-27.3408 2.89792h-28.06784c-15.62624 0-24.832-0.96768-27.0592-2.56512-0.256-0.48128-0.96768-2.60096-0.96768-7.01952v-30.41792h84.1216v30.41792z m43.75552-215.28064H735.6928a24.39168 24.39168 0 0 0-24.39168 24.40192 24.3968 24.3968 0 0 0 24.39168 24.40192h129.09056v87.28576H156.83072v-87.28576h129.1008a24.3968 24.3968 0 0 0 24.3968-24.40192 24.3968 24.3968 0 0 0-24.3968-24.40192H156.83072V549.9904h707.94752l0.00512 100.46976z m0-149.25312H156.83072V231.65952c0-35.47136 28.86656-64.3328 64.34816-64.3328h579.25632c35.4816 0 64.34304 28.86144 64.34304 64.3328v269.54752z m48.78336 62.52032V501.39648c16.86528 0.44544 30.46912 14.22848 30.46912 31.1808 0 16.96256-13.60384 30.7456-30.46912 31.15008z" fill="" p-id="7244"></path></svg>