<?xml version="1.0" standalone="no"?><!DOCTYPE svg PUBLIC "-//W3C//DTD SVG 1.1//EN" "http://www.w3.org/Graphics/SVG/1.1/DTD/svg11.dtd"><svg t="1628758133409" class="icon" viewBox="0 0 1024 1024" version="1.1" xmlns="http://www.w3.org/2000/svg" p-id="5485" xmlns:xlink="http://www.w3.org/1999/xlink" width="200" height="200"><defs><style type="text/css"></style></defs><path d="M916.48 34.304C894.976 12.288 865.28 0 834.56 0H184.32C118.784 1.536 66.56 55.808 67.584 121.344v781.312c-1.024 65.536 51.2 119.808 116.736 121.344 59.392 0 113.664-47.104 165.888-92.672 46.08-39.424 92.672-80.384 134.144-80.384 50.176 0 106.496 41.472 161.28 81.92 59.392 44.544 124.928 91.136 189.952 91.136 65.536-1.536 117.76-55.296 116.736-121.344V121.856c0-32.768-12.8-64-35.84-87.552z m-108.544 880.64c-29.184 0-57.344-16.384-123.904-65.536l-8.704-6.144c-83.456-62.464-130.56-88.064-187.904-88.064-53.248 0-93.184 25.6-167.936 92.16 2.048-2.048-35.328 30.72-44.544 38.4-24.576 19.456-43.008 28.16-62.976 29.184-22.016 0.512-38.4-24.576-37.376-42.496V156.16c-1.024-22.528 16.384-40.96 38.4-42.496h594.944c9.728 0 18.944 3.584 26.112 10.752 8.704 8.192 13.824 19.968 13.312 32.256v715.776c1.024 22.528-16.896 41.472-39.424 42.496z" fill="#9898A5" p-id="5486"></path><path d="M734.72 233.472H282.624c-13.824 0-27.136 4.096-36.864 11.776s-15.36 17.92-15.36 29.184 5.632 21.504 15.872 29.184c10.752 8.192 24.064 12.288 37.888 11.776h451.584c28.672 0 52.224-18.432 52.224-40.96-1.024-22.528-24.064-40.96-53.248-40.96zM595.968 442.368H282.112c-28.672 0-51.712 18.432-52.224 40.96 0 11.776 6.144 22.528 15.36 29.184 10.752 8.192 24.064 12.288 37.376 11.776h312.832c28.672 0 52.224-18.432 52.224-40.96 0.512-22.528-23.04-40.96-51.712-40.96z" fill="#9898A5" p-id="5487"></path></svg>